<svg xmlns="http://www.w3.org/2000/svg" version="1.1" xmlns:xlink="http://www.w3.org/1999/xlink" xmlns:svgjs="http://svgjs.com/svgjs" width="512" height="512">
  <svg xmlns="http://www.w3.org/2000/svg" width="512" height="512" preserveAspectRatio="xMidYMid meet" version="1.0" viewBox="0 0 3840 3840">
    <g fill="#000" stroke="none">
      <path d="m1800 20-180 10-170 10c-40 0-50 10-60 20l-40 20c-30 0-60 10-90 40-20 20-30 20-50 10s-30-10-70 10c-20 20-60 30-90 30L900 270l-50 40-50 40-40 30-40 20-100 80-110 110c-60 60-140 170-140 190l-30 40-40 60-30 50-10 20-20 40-50 100-10 20-10 20c10 10 0 30-10 40l-50 140c0 70-10 120-30 130l-10 30-10 30-30 120-10 120v200c0 100 10 230 30 270l10 70v60l10 40c0 40 30 110 60 140l20 30c-10 10 0 20 10 30l10 40 10 20 20 30 30 50v50c-20 10-20 10-10 20 20 20 40 50 40 80l30 40 30 50c0 30 30 80 90 130l30 60c0 30 30 60 70 60 30 0 30 10 40 30 0 20 10 40 40 40l10 10c-10 20 20 50 70 80l80 60c30 20 60 40 110 50l80 30c10 20 20 10 20-20-10-30 10-60 70-80 20-10 30-20 30-40 10-40 0-60-40-60-30 0-100-40-100-60l-60-40c-40-20-60-40-70-70l-40-40-30-20-50-20c-50-10-70-40-60-80 0-30-10-40-30-50l-40-10c-10 10-30-20-30-50 10-20 0-50-20-100l-40-110a820 820 0 00-90-210l-30-40c-30-30-30-70-10-100l-10-30c-30-20-40-70-20-100 10-30 10-30-20-60-40-30-40-30-10-70 30-30 30-90 0-100-40-20-40-20-10-40 20-30 30-80 10-110v-50l30-60c20-40 20-40 0-50l-10-20v-30c-10-30 0-50 30-60 30-20 40-70 20-100-20-20-20-20-10-30 10-20 10-30-10-30l-20-10c0-20 60-90 90-90l20-10v-10l-20-10-10-30c0-20 0-20 30-20l30-10 10-70c0-60 0-60 40-100l40-70c20-50 30-70 80-110 30-20 60-50 60-70 20-30 20-30-10-60-20-30-20-30-10-70 20-40 40-40 90-10 30 20 30 20 50 10l50-20 50-50 80-40c40 0 170-70 190-90l20-10 60-20 50-30 60-40c30-40 40-40 90-40l70 10c10 10 30 0 50-20 30-20 40-20 60-10h20l30 10h40l120-20 180 10 150 20 110 10 30 20 80 20 80 30 30 10 20 10 50 10 70 30 80 40 100 70c120 90 140 100 190 100l70 10 50-10h100c30-20 30-20 40-60 0-40 0-50-40-80-60-50-100-80-100-60l-20 10c-10 10-20 10-10 20 0 20-10 20-40 20-30-10-40-10-40-30 0-30 20-60 30-60l60 10-120-100-140-60-120-40-30-30c-10-30-50-50-100-40-20 10-30 10-50-10-20-40-70-50-130-40l-80-10-60-20-70-20c-60-30-130-40-160-30-30 20-70 10-140 0-10-10-50 0-90 10zm1250 480-10 10-10-10v-10l10 10zM550 760c10 30 0 50-10 70-20 30-30 40-60 40-20 0-40-10-50-30-20-40-20-70 0-80l30-20 70-30c10 0 20 20 20 50zm-280 900-10 20c-10 10-20-10-20-20 10-20 30-10 30 0zm740 1710-20 20h-50c-20-10-20-30 0-30h70"></path>
      <path d="M1090 580c-20 0-30 20-40 40v210c20 400 20 500 10 520-20 20-50 10-80-20-60-60-90-160-90-310 0-90-20-120-80-150-60-20-90 10-90 110l10 60 40 20 20 20-20 10h-30v90c0 70 10 90 30 120l30 50c20 40 80 100 170 150l80 40v40c0 40 0 50-90 140a690 690 0 00-230 570l-10 250v200l10 10h30l30 40c-10 20 20 10 40-10 30-30 40-90 50-320s20-290 60-460c20-50 90-140 110-130l10 380a7240 7240 0 01 20 880c20 50 40 60 80 40 60-30 70-50 70-290l10-210a6050 6050 0 00-10-810c20-50 40-60 60-30 90 90 160 530 150 830-10 110-10 130 10 130v30c-20 20 0 40 50 50s80-10 90-60l20-80v-140a28120 28120 0 01-70-610c-10-100-40-170-90-210l-120-90c-90-40-130-80-130-120l10-20 20-10c10-10 30-30 50-30l50-30 60-50 70-60c70-90 110-230 120-360 10-60 10-80-10-120-20-50-20-50 0-70l10-80c-10-50-20-60-40-70-60-30-100 70-120 300-20 170-30 200-70 270-20 30-80 90-100 90s-30-80-20-120V700c-10-20-10-20-30 0-10 10-10 10-30-10-10-20-20-30-10-70 0-30 0-40-20-50s-20-10-50 10"></path>
      <path d="m3240 720 20 40c20 30 30 50 0 60l-10 40c-10 30 0 40 20 50l20 30 40 40 20 10-20 20-20 20 20 10 20 30 30 50 30 60c10 60 40 120 50 140 20 20 30 60 40 110l20 60c20 20 20 40 10 80 0 50 20 120 50 150v50c-10 30-20 250-10 270v30c-10 10-20 40-10 50l-10 60c-20 30-20 50-20 100l-20 80v60l-20 30c-20 20-60 100-60 140l-30 60-20 60-40 70c-20 10-20 30-20 50 10 20 0 20-20 30l-20 20-50 70-60 80-10 30c-10 0-30 20-30 40-10 20-30 30-60 40l-40 30-40 30c-20 20-30 30-30 60 0 40 0 40-40 60l-60 20-10 10c0 10-30 20-40 10h-30l-190 50-60 20-40 10-30 20-50 30-40 10-60 30-50-10c-10-10-30-10-50 10-30 10-50 20-90 10l-120 10c-30 30-50 30-100 30l-70 10c-20 20-30 20-50 10l-30-30c10-30-10-40-60-30h-50l-30-10-50-10-60-10c-70-10-70-10-110-40l-40-20-40-10-60-20-50-20h-70l-10 40v70c0 10 90 100 110 100l20 20 30 30c30 0 30 0 20 30 0 40 0 40 40 60l60 10 40 10c10 10 10 10 20-20 10-20 10-30-10-70l-30-60 20-10c30-10 50 0 60 20 10 10 20 10 30-10 20-20 40-30 40-10l-10 10c-30 10-20 60 0 80 30 20 20 70-10 70l-30 10c0 30 30 40 90 50h130c60 10 70 10 80-10 20-20 90-20 130 10 40 20 180 10 210-20 20-30 80-30 120-10 10 10 30 0 80-20l100-30c40 0 70-30 70-50-10-10 30-60 80-70 20-20 40-20 90-10 60 10 60 10 120-20l100-30 40-20 60-30c40-10 50-20 50-30l10-20 50-50a1680 1680 0 01 90-110l30-10c30 0 50-20 30-40-10-10 0-30 20-30 10 0 60-50 50-60l20-40 10-40c-10-20 20-60 40-60 10 0 30-20 40-50l60-90c30-20 50-60 60-80l30-70 20-50 70-100 20-30 20-50 20-100 20-110 10-100 20-70c20-30 20-30 10-60l-10-80v-240c-20-30-30-130-20-170v-40l-10-70-60-180-20-60c0-20 0-40-20-50l-20-50-10-30c-10 0-50-80-50-110l-30-60-30-40-30-40-40-40c0-20-50-60-60-60-10 10-90-10-130-30h-40zM1200 3460l-10 10-10-10 10-10 10 10"></path>
      <path d="M2830 920a13230 13230 0 01-440 30 4300 4300 0 01-650 50c-30 20 40 80 100 90a1090 1090 0 00 320-40c10 10 20 50 10 210v200h-80c-90 10-130 0-140-40-10-30-30-60-80-90-40-20-70-20-90 10-10 20 0 270 10 320l20 200c20 240 30 260 230 270l110 10 20 30c30 50 20 180-20 360a23630 23630 0 00-130 490c0 30-30 90-60 90-10 0-60 60-60 80 0 30 30 80 50 80 30 20 110-20 140-60l70-120 60-110 20-60 30-150a2750 2750 0 00 80-480 2520 2520 0 00 20-560v-650l30-10c70 0 80 10 90 460a9370 9370 0 00 180 1540c20 70 20 80 50 80 20 0 30 0 30 40v60c-10 20 30 50 70 50s40 0 40-30 30-60 50-60c30 0 20-100-50-250a1030 1030 0 01-70-210l-40-170a6250 6250 0 00-70-430c0-40 0-50 30-60l130-30c230-20 250-60 250-370l10-240c20-60 10-100-40-120-40-20-60-20-110 60l-60 70c-70 40-170 40-210 0-20-20-20-30-20-200l20-190c20-10 50-20 130-20 290-20 300-20 320-50 40-30 30-50-20-40l-20-10c0-10 20-20 30-10l10-10c-10-20-160-20-310-10zm-660 710c20 20 20 30 20 170 0 130-10 140-30 160s-60 20-110 10c-30-10-40-10-60-80-30-90-40-200-20-250l10-40h80c90 0 90 0 110 30zm740 100c20 190 10 200-140 200-110 0-110 0-110-170 0-160 0-160 150-160h90l10 130"></path>
    </g>
  </svg>
</svg>